<?xml version="1.0" encoding="UTF-8"?>
<svg version="1.1" xmlns="http://www.w3.org/2000/svg" width="512" height="512">
<path d="M0 0 C7.99364428 4.42792882 16.09939042 8.61598609 24.23095703 12.78271484 C34.04567718 17.81528681 43.78879966 22.94388815 53.44580078 28.27490234 C60.9725479 32.41182558 68.59257545 36.35761757 76.23095703 40.28271484 C85.8513138 45.22680044 95.40847993 50.26566049 104.87817383 55.49438477 C109.36754457 57.968171 113.87484631 60.38871572 118.43798828 62.72412109 C119.37771484 63.20655273 120.31744141 63.68898438 121.28564453 64.18603516 C123.0510172 65.08810058 124.82023194 65.98271014 126.59423828 66.86767578 C132.53150854 69.90529362 137.59124105 73.5472991 142.73095703 77.78271484 C143.30362305 78.22574951 143.87628906 78.66878418 144.46630859 79.12524414 C156.04988677 88.231081 162.77061419 103.70556009 165.73095703 117.78271484 C166.16498941 121.68966889 166.25590674 125.54127568 166.23095703 129.47021484 C166.22596191 130.51459717 166.2209668 131.55897949 166.21582031 132.63500977 C165.78368514 151.99019526 157.56120485 167.26565165 143.81274414 180.65014648 C138.29840105 185.80205024 132.60626402 189.40042254 125.91845703 192.84521484 C124.36626465 193.66530029 124.36626465 193.66530029 122.78271484 194.50195312 C120.57244824 195.66970955 118.35965075 196.8326864 116.14453125 197.99121094 C111.57037192 200.39181036 107.02071105 202.83693951 102.47045898 205.2824707 C98.93968634 207.17989355 95.4061593 209.07208141 91.87158203 210.96240234 C84.82309923 214.73283995 77.77685867 218.50745589 70.73095703 222.28271484 C64.29758128 225.72951928 57.86418194 229.17627844 51.42962646 232.62088013 C40.59542499 238.42076465 29.76230319 244.22253865 18.94384766 250.05175781 C16.8101502 251.20129542 14.67603857 252.35006459 12.54150391 253.49804688 C7.45273782 256.23523314 2.36743706 258.97834338 -2.70765686 261.74078369 C-40.60572722 282.36001403 -77.62410737 295.541496 -121.26904297 285.78271484 C-122.08904785 285.59999023 -122.90905273 285.41726563 -123.75390625 285.22900391 C-144.43977695 280.40507312 -162.69015983 270.37119928 -181.14013672 260.14990234 C-188.46711903 256.10126395 -195.87014246 252.19771784 -203.26904297 248.28271484 C-212.2980473 243.5012722 -221.31249821 238.69906049 -230.26904297 233.78271484 C-239.14445424 228.91222725 -248.07432254 224.14920777 -257.01904297 219.40771484 C-270.18556321 212.42670517 -283.33449927 205.41607615 -296.43310547 198.30810547 C-299.09627277 196.87564427 -301.77295245 195.47331216 -304.45654297 194.07958984 C-314.06209701 189.02979054 -321.71623885 183.62978406 -329.26904297 175.78271484 C-329.85685547 175.22583984 -330.44466797 174.66896484 -331.05029297 174.09521484 C-334.75969175 170.30689269 -337.05421991 165.70831504 -339.45654297 161.03271484 C-339.79008789 160.38923096 -340.12363281 159.74574707 -340.46728516 159.08276367 C-345.1048979 149.65225054 -346.81387432 140.43375366 -346.70654297 129.97021484 C-346.69824463 128.91922607 -346.68994629 127.8682373 -346.68139648 126.78540039 C-346.28791493 108.62223564 -338.92245871 92.85858167 -326.26904297 79.78271484 C-317.45694477 71.48040745 -306.44607311 66.51835521 -295.75341797 61.09521484 C-289.98367701 58.16789483 -284.30402838 55.10325016 -278.64404297 51.97021484 C-269.1024382 46.71095847 -259.43611035 41.71510095 -249.74291992 36.74353027 C-240.60567074 32.05446063 -231.54604078 27.25434938 -222.55419922 22.29052734 C-214.41121588 17.81490242 -206.1576401 13.56250912 -197.89227295 9.31921387 C-189.78355875 5.15449898 -181.74458155 0.88604164 -173.76904297 -3.52978516 C-113.18774041 -36.80465523 -59.76793191 -33.16761503 0 0 Z M-173.53686523 43.05078125 C-182.20757523 47.80217272 -190.99841965 52.31010873 -199.79516602 56.82189941 C-208.93241519 61.51096906 -217.99204516 66.31108031 -226.98388672 71.27490234 C-234.51065781 75.41183875 -242.13094353 79.35703483 -249.76904297 83.28271484 C-258.71310749 87.88239405 -267.62510334 92.53140656 -276.45654297 97.34521484 C-277.73658203 98.04130859 -277.73658203 98.04130859 -279.04248047 98.75146484 C-283.28489184 101.07838364 -287.49200212 103.46263541 -291.66748047 105.90771484 C-292.46718262 106.37564453 -293.26688477 106.84357422 -294.09082031 107.32568359 C-299.43340296 110.89938156 -303.89368735 116.42451348 -305.26904297 122.78271484 C-306.23928254 131.62267541 -305.89207372 139.56546219 -300.26904297 146.78271484 C-295.13134243 152.05043739 -289.0478899 155.33574441 -282.58154297 158.72021484 C-281.01799072 159.5527478 -281.01799072 159.5527478 -279.42285156 160.40209961 C-277.19161737 161.58972397 -274.95848677 162.7737912 -272.72363281 163.95458984 C-268.10695603 166.39767647 -263.50495807 168.86774334 -258.90258789 171.33764648 C-255.95461146 172.91943246 -253.00545497 174.49896702 -250.05555725 176.0771637 C-242.78650691 179.96626682 -235.52612053 183.87131799 -228.26904297 187.78271484 C-214.61541738 195.1404098 -200.94308431 202.46305877 -187.26904297 209.78271484 C-183.73234557 211.6758939 -180.19571119 213.56918989 -176.65942383 215.46313477 C-174.3274184 216.71165409 -171.9949036 217.95922249 -169.66186523 219.20581055 C-164.41300242 222.01301518 -159.16993471 224.82917856 -153.95184326 227.69316101 C-152.20158247 228.65362532 -150.44943082 229.61064125 -148.69726562 230.56762695 C-146.53832269 231.74795141 -144.38272565 232.93442876 -142.23144531 234.12866211 C-116.4660714 248.18116352 -88.55612913 251.75175204 -60.26904297 243.78271484 C-43.01436884 238.61594273 -27.01833142 228.35235918 -11.26904297 219.78271484 C-10.25116699 219.22890137 -9.23329102 218.67508789 -8.18457031 218.10449219 C-4.68966607 216.19959237 -1.19655207 214.29149711 2.29321289 212.37719727 C10.31826257 207.9829688 18.39716287 203.69251953 26.48095703 199.40771484 C37.38306353 193.62891346 48.26806668 187.8206642 59.12646484 181.95996094 C65.33227393 178.61090097 71.54458537 175.27455553 77.76539612 171.95347595 C83.04271411 169.13556926 88.31154188 166.30206865 93.58007812 163.46777344 C96.46163457 161.92674581 99.35368144 160.40809195 102.25048828 158.89599609 C113.47804902 153.12131618 113.47804902 153.12131618 121.73095703 143.78271484 C122.37033203 142.75146484 123.00970703 141.72021484 123.66845703 140.65771484 C126.3266993 133.35172823 125.90908352 124.36715649 122.73095703 117.34521484 C118.12206331 108.39948016 108.72447558 103.86177516 100.10595703 99.59521484 C97.85496195 98.45394621 95.60497856 97.31068021 93.35595703 96.16552734 C92.23576172 95.59737305 91.11556641 95.02921875 89.96142578 94.44384766 C85.29223433 92.04291215 80.69876066 89.5133554 76.10595703 86.97021484 C66.56443182 81.71082172 56.89801924 76.7150983 47.20483398 71.74353027 C38.06758481 67.05446063 29.00795484 62.25434938 20.01611328 57.29052734 C11.87509551 52.81598276 3.62345285 48.56478696 -4.63977051 44.32223511 C-12.87418553 40.09252894 -21.03992962 35.75839725 -29.14404297 31.28271484 C-82.71890283 1.92128378 -122.4551955 14.91693229 -173.53686523 43.05078125 Z " fill="#000000" transform="translate(346.26904296875,35.21728515625)"/>
<path d="M0 0 C5.00330085 2.84163131 8.92457418 6.96122253 10.75 12.4375 C11.38536761 20.14523827 11.65817819 26.23769597 6.75 32.4375 C2.750716 36.03249457 -1.12847815 38.6506336 -5.921875 41.15234375 C-6.86832382 41.65051605 -6.86832382 41.65051605 -7.83389282 42.15875244 C-9.88595165 43.23728673 -11.94295984 44.30600223 -14 45.375 C-15.44266435 46.13172192 -16.88487907 46.88930163 -18.32666016 47.64770508 C-20.52176905 48.80227415 -22.71711335 49.95636222 -24.91384888 51.10783386 C-31.51024098 54.56587009 -38.07226925 58.08484443 -44.625 61.625 C-45.67413574 62.19089844 -46.72327148 62.75679688 -47.80419922 63.33984375 C-49.90480925 64.47296096 -52.00523411 65.60642153 -54.10546875 66.74023438 C-71.95807002 76.37620363 -89.83222886 85.97173196 -107.71777344 95.54638672 C-112.39791031 98.05190638 -117.07725319 100.55890786 -121.7565918 103.06591797 C-124.08090562 104.31116151 -126.40528687 105.5562792 -128.72973633 106.80126953 C-135.28542081 110.31263651 -141.83979043 113.82642896 -148.39248657 117.34336853 C-152.52622066 119.56148075 -156.66299911 121.77382326 -160.80078125 123.984375 C-164.76592122 126.10300085 -168.72211128 128.23632423 -172.66796875 130.390625 C-204.63855574 147.73932359 -240.3370982 154.46743851 -276.25 146.4375 C-277.07000488 146.25477539 -277.89000977 146.07205078 -278.73486328 145.88378906 C-298.52642523 141.26841046 -316.03214433 131.9138478 -333.69897461 122.13037109 C-340.98194065 118.09797983 -348.34802585 114.24648036 -355.75 110.4375 C-364.87151633 105.73882861 -373.91522055 100.92675996 -382.90234375 95.9765625 C-390.12585388 92.01359177 -397.42587724 88.21078259 -404.75 84.4375 C-413.87127636 79.73834975 -422.915208 74.92676688 -431.90234375 69.9765625 C-439.12586358 66.01358645 -446.42604289 62.21111953 -453.75 58.4375 C-462.39925355 53.97698719 -471.0136305 49.46289992 -479.5625 44.8125 C-480.45710938 44.3278125 -481.35171875 43.843125 -482.2734375 43.34375 C-498.5904911 34.4160267 -498.5904911 34.4160267 -501.25 26.4375 C-501.88536761 18.72976173 -502.15817819 12.63730403 -497.25 6.4375 C-492.74713766 1.83594479 -488.32797422 -0.55805429 -481.9375 -1.1875 C-474.82572164 -0.96074765 -469.12987368 2.63061787 -463.03076172 5.94726562 C-459.74105666 7.71024716 -456.42196918 9.41295892 -453.09765625 11.109375 C-440.43909031 17.57673858 -427.84360779 24.13218046 -415.39599609 30.99902344 C-408.24184411 34.93267819 -401.0076407 38.69874624 -393.75 42.4375 C-384.62870842 47.13661915 -375.58479104 51.94823365 -366.59765625 56.8984375 C-359.37414499 60.86140884 -352.07410448 64.66417989 -344.75 68.4375 C-336.40365564 72.73789945 -328.10469064 77.10520399 -319.875 81.625 C-317.21496456 83.08076002 -314.55458351 84.535886 -311.89404297 85.99072266 C-310.10828047 86.96786288 -308.32347195 87.94674826 -306.53955078 88.92724609 C-277.16937498 105.00527133 -248.36728263 112.76730002 -215.25 103.4375 C-197.99532587 98.27072789 -181.99928845 88.00714433 -166.25 79.4375 C-164.72318604 78.60677979 -164.72318604 78.60677979 -163.16552734 77.75927734 C-159.67062311 75.85437752 -156.1775091 73.94628227 -152.68774414 72.03198242 C-144.66269446 67.63775396 -136.58379417 63.34730468 -128.5 59.0625 C-117.59210295 53.28062926 -106.7020765 47.46791176 -95.83691406 41.60595703 C-87.98241726 37.36850327 -80.11851851 33.14884077 -72.25 28.9375 C-62.97218648 23.97122827 -53.70148022 18.99202773 -44.4375 14 C-41.30771913 12.31458922 -38.17782385 10.62939121 -35.04785156 8.94433594 C-33.27082026 7.98728208 -31.49409192 7.02966529 -29.71777344 6.07128906 C-27.58385805 4.92032249 -25.4484569 3.77217205 -23.3125 2.625 C-22.18972656 2.02042969 -21.06695312 1.41585938 -19.91015625 0.79296875 C-13.60628248 -2.41913727 -6.53947747 -2.94843493 0 0 Z " fill="#000000" transform="translate(501.25,355.5625)"/>
<path d="M0 0 C5.00330085 2.84163131 8.92457418 6.96122253 10.75 12.4375 C11.38536761 20.14523827 11.65817819 26.23769597 6.75 32.4375 C2.71225161 36.07227009 -1.21820716 38.69669402 -6.0625 41.22265625 C-6.70413086 41.56010361 -7.34576172 41.89755096 -8.00683594 42.245224 C-9.37547248 42.96406501 -10.74579835 43.67969754 -12.11767578 44.39233398 C-15.02198837 45.90102029 -17.91807559 47.42519183 -20.81469727 48.94857788 C-22.26919782 49.71338502 -23.72411226 50.47740556 -25.17944336 51.2406311 C-30.90384847 54.24479299 -36.5865221 57.319954 -42.25 60.4375 C-51.1247565 65.30913522 -60.05515708 70.07129753 -69 74.8125 C-79.90934459 80.59513803 -90.80062866 86.40896986 -101.66748047 92.27124023 C-112.40226936 98.06213691 -123.15429766 103.82063085 -133.90782166 109.5766449 C-138.73985338 112.16343211 -143.56959834 114.754468 -148.39880371 117.3465271 C-152.53039803 119.56365123 -156.66506582 121.77494744 -160.80078125 123.984375 C-164.76592122 126.10300085 -168.72211128 128.23632423 -172.66796875 130.390625 C-204.63855574 147.73932359 -240.3370982 154.46743851 -276.25 146.4375 C-277.07000488 146.25477539 -277.89000977 146.07205078 -278.73486328 145.88378906 C-298.52642523 141.26841046 -316.03214433 131.9138478 -333.69897461 122.13037109 C-340.98194065 118.09797983 -348.34802585 114.24648036 -355.75 110.4375 C-364.87151633 105.73882861 -373.91522055 100.92675996 -382.90234375 95.9765625 C-390.12585388 92.01359177 -397.42587724 88.21078259 -404.75 84.4375 C-413.87127636 79.73834975 -422.915208 74.92676688 -431.90234375 69.9765625 C-439.12586358 66.01358645 -446.42604289 62.21111953 -453.75 58.4375 C-462.39925355 53.97698719 -471.0136305 49.46289992 -479.5625 44.8125 C-480.45710938 44.3278125 -481.35171875 43.843125 -482.2734375 43.34375 C-498.5904911 34.4160267 -498.5904911 34.4160267 -501.25 26.4375 C-501.88536761 18.72976173 -502.15817819 12.63730403 -497.25 6.4375 C-492.74713766 1.83594479 -488.32797422 -0.55805429 -481.9375 -1.1875 C-474.82572164 -0.96074765 -469.12987368 2.63061787 -463.03076172 5.94726562 C-459.74105666 7.71024716 -456.42196918 9.41295892 -453.09765625 11.109375 C-440.43909031 17.57673858 -427.84360779 24.13218046 -415.39599609 30.99902344 C-408.24184411 34.93267819 -401.0076407 38.69874624 -393.75 42.4375 C-384.62870842 47.13661915 -375.58479104 51.94823365 -366.59765625 56.8984375 C-359.37414499 60.86140884 -352.07410448 64.66417989 -344.75 68.4375 C-336.40367697 72.73788846 -328.10430792 77.10453031 -319.875 81.625 C-285.6963566 100.363305 -254.63528551 114.53312163 -215.25 103.4375 C-197.99532587 98.27072789 -181.99928845 88.00714433 -166.25 79.4375 C-164.72318604 78.60677979 -164.72318604 78.60677979 -163.16552734 77.75927734 C-159.67062311 75.85437752 -156.1775091 73.94628227 -152.68774414 72.03198242 C-144.66269446 67.63775396 -136.58379417 63.34730468 -128.5 59.0625 C-117.59210295 53.28062926 -106.7020765 47.46791176 -95.83691406 41.60595703 C-87.98241726 37.36850327 -80.11851851 33.14884077 -72.25 28.9375 C-62.97218648 23.97122827 -53.70148022 18.99202773 -44.4375 14 C-41.30771913 12.31458922 -38.17782385 10.62939121 -35.04785156 8.94433594 C-33.27082026 7.98728208 -31.49409192 7.02966529 -29.71777344 6.07128906 C-27.58385805 4.92032249 -25.4484569 3.77217205 -23.3125 2.625 C-22.18972656 2.02042969 -21.06695312 1.41585938 -19.91015625 0.79296875 C-13.60628248 -2.41913727 -6.53947747 -2.94843493 0 0 Z " fill="#000000" transform="translate(501.25,265.5625)"/>
</svg>
